<?xml version="1.0" encoding="utf-8"?>
<svg version="1.1" x="0px" y="0px" viewBox="0 0 185.72 52.55" style="enable-background:new 0 0 185.72 52.55;" fill="#0A4BB6" xmlns="http://www.w3.org/2000/svg">
  <path d="M9.98,3.25C4.43,3.28-0.03,7.8,0,13.34s4.55,10.01,10.1,9.98c5.54-0.03,10.01-4.55,9.98-10.1 S15.52,3.21,9.98,3.25z M7.39,14.71c0.16,0.43,0.39,0.8,0.69,1.12c0.29,0.31,0.65,0.56,1.07,0.73c0.42,0.17,0.91,0.26,1.44,0.26 c0.69,0,1.31-0.11,1.83-0.31l-0.01-2.26l-2.4,0.01l0-0.71c0-0.65,0.52-1.17,1.16-1.18l3.37-0.02l0.03,5.6l-0.11,0.05 c-0.53,0.26-1.11,0.46-1.74,0.61c-0.63,0.15-1.36,0.22-2.18,0.23c-0.84,0.01-1.63-0.13-2.33-0.39c-0.7-0.27-1.32-0.65-1.83-1.14 c-0.51-0.49-0.91-1.08-1.2-1.76c-0.29-0.68-0.43-1.43-0.44-2.25C4.74,12.45,4.89,11.68,5.18,11c0.29-0.68,0.69-1.27,1.2-1.75 C6.88,8.77,7.49,8.4,8.18,8.13c0.69-0.26,1.45-0.4,2.25-0.4c0.83-0.01,1.61,0.11,2.3,0.35c0.7,0.24,1.27,0.56,1.71,0.96 l0.14,0.13l-1.52,1.66l-0.14-0.16c-0.24-0.26-0.58-0.49-1.02-0.68c-0.87-0.37-2-0.37-2.82,0c-0.41,0.18-0.76,0.44-1.05,0.75 c-0.29,0.32-0.51,0.69-0.67,1.12c-0.16,0.43-0.23,0.9-0.23,1.4C7.14,13.79,7.22,14.28,7.39,14.71z"/>
  <path d="M34.94,10.59c-0.29-0.31-0.64-0.56-1.05-0.74c-0.41-0.18-0.86-0.27-1.36-0.26c-0.5,0-0.95,0.1-1.35,0.28 c-0.4,0.18-0.75,0.44-1.03,0.75c-0.29,0.32-0.51,0.69-0.67,1.12c-0.16,0.43-0.23,0.9-0.23,1.4c0,0.52,0.09,1,0.25,1.43 c0.16,0.43,0.39,0.8,0.69,1.12c0.29,0.31,0.65,0.56,1.05,0.73c0.8,0.35,1.88,0.34,2.69-0.02c0.4-0.18,0.76-0.43,1.05-0.74 c0.29-0.32,0.52-0.7,0.67-1.13c0.16-0.43,0.23-0.92,0.23-1.44c0-0.5-0.09-0.97-0.25-1.4C35.46,11.28,35.23,10.9,34.94,10.59z"/>
  <path d="M32.5,3.11c-5.54,0.03-10.01,4.55-9.98,10.1s4.55,10.01,10.1,9.98s10.01-4.55,9.98-10.1 C42.56,7.54,38.04,3.08,32.5,3.11z M37.81,15.34c-0.28,0.68-0.67,1.28-1.18,1.77c-0.5,0.49-1.11,0.88-1.8,1.16 c-0.69,0.28-1.45,0.42-2.27,0.42c-0.81,0-1.57-0.13-2.25-0.4c-0.69-0.27-1.29-0.65-1.8-1.14c-0.5-0.49-0.9-1.08-1.19-1.75 c-0.29-0.68-0.43-1.43-0.44-2.25c-0.01-0.84,0.13-1.61,0.41-2.29c0.28-0.68,0.67-1.27,1.17-1.75c0.5-0.48,1.1-0.85,1.79-1.12 c0.68-0.26,1.44-0.4,2.25-0.4c0.82,0,1.58,0.12,2.27,0.37c0.69,0.25,1.3,0.62,1.81,1.09c0.51,0.47,0.91,1.06,1.2,1.74 c0.29,0.68,0.43,1.44,0.44,2.28C38.23,13.9,38.09,14.66,37.81,15.34z"/>
  <path d="M35.07,32.75c-0.29-0.31-0.64-0.56-1.05-0.74c-0.41-0.18-0.86-0.27-1.36-0.26c-0.5,0-0.95,0.1-1.35,0.28 c-0.4,0.18-0.75,0.44-1.03,0.75c-0.29,0.32-0.51,0.69-0.67,1.12c-0.16,0.43-0.23,0.9-0.23,1.4c0,0.52,0.09,1,0.25,1.43 c0.16,0.43,0.39,0.8,0.69,1.12c0.29,0.31,0.65,0.56,1.05,0.73c0.8,0.35,1.88,0.34,2.69-0.02c0.4-0.18,0.76-0.43,1.05-0.74 c0.29-0.32,0.52-0.7,0.67-1.13c0.16-0.43,0.23-0.92,0.23-1.44c0-0.5-0.09-0.97-0.25-1.4C35.59,33.43,35.36,33.06,35.07,32.75z"/>
  <path d="M32.63,25.27c-5.54,0.03-10.01,4.55-9.98,10.1c0.03,5.54,4.55,10.01,10.1,9.98 c5.54-0.03,10.01-4.55,9.98-10.1C42.69,29.7,38.17,25.24,32.63,25.27z M37.95,37.5c-0.28,0.68-0.67,1.28-1.18,1.77 c-0.5,0.49-1.11,0.88-1.8,1.16c-0.69,0.28-1.45,0.42-2.27,0.42c-0.81,0-1.57-0.13-2.25-0.4c-0.69-0.27-1.29-0.65-1.8-1.14 c-0.5-0.49-0.9-1.08-1.19-1.75c-0.29-0.68-0.43-1.43-0.44-2.25c-0.01-0.84,0.13-1.61,0.41-2.29c0.28-0.68,0.67-1.27,1.17-1.75 c0.5-0.48,1.1-0.85,1.79-1.12c0.68-0.26,1.44-0.4,2.25-0.4c0.82,0,1.58,0.12,2.27,0.37c0.69,0.25,1.3,0.62,1.81,1.09 c0.51,0.47,0.91,1.06,1.2,1.74c0.29,0.68,0.43,1.44,0.44,2.28C38.36,36.06,38.23,36.82,37.95,37.5z"/>
  <path d="M55.02,2.98C51.25,3,47.99,5.09,46.29,8.17l13.94-0.08l0.01,1.97l-4.08,0.02l0.05,8.6l-2.2,0.01l-0.05-8.6 l-8.5,0.05c-0.28,0.93-0.42,1.91-0.42,2.93c0.03,5.54,4.55,10.01,10.1,9.98s10.01-4.55,9.98-10.1 C65.08,7.41,60.56,2.94,55.02,2.98z"/>
  <path d="M60.7,23.57l-0.58,0l0-0.43l1.65-0.01l0,0.43l-0.58,0l0.01,1.53l-0.49,0L60.7,23.57z M62.14,23.13l0.68,0 l0.47,1.27l0.46-1.28l0.68,0l0.01,1.96l-0.49,0l-0.01-1.28l-0.01,0l-0.47,1.28l-0.33,0l-0.49-1.27l-0.01,0l0.01,1.28l-0.49,0 L62.14,23.13z"/>
  <path d="M16.42,27.59l-5.14,8.96l0.03,4.56l-2.2,0.01l-0.03-4.55l-3.95-5.88l1.06-0.53 c0.26-0.15,0.56-0.19,0.85-0.11c0.28,0.08,0.52,0.28,0.68,0.55l2.48,4.03l4.39-8.21c-1.35-0.66-2.87-1.03-4.48-1.02 C4.57,25.44,0.1,29.96,0.13,35.5c0.03,5.54,4.55,10.01,10.1,9.98c5.54-0.03,10.01-4.55,9.98-10.1 C20.19,32.22,18.71,29.42,16.42,27.59z"/>
  <path d="M55.15,25.13c-0.72,0-1.42,0.09-2.09,0.23l0.07,11.36c0,0.28,0.04,0.56,0.11,0.83 c0.07,0.27,0.19,0.51,0.35,0.71c0.16,0.2,0.37,0.37,0.64,0.5c0.26,0.13,0.6,0.19,1,0.19c0.4,0,0.74-0.07,1-0.2 c0.26-0.13,0.48-0.3,0.63-0.51c0.16-0.21,0.27-0.45,0.34-0.72c0.07-0.28,0.11-0.56,0.1-0.84l0-0.32l-0.05-4.94 c-0.03-0.62,0.36-1.07,1.03-1.2l0.79-0.2l0.39-0.08l0.04,6.8c0,0.64-0.1,1.22-0.32,1.74c-0.22,0.52-0.52,0.96-0.9,1.33 c-0.38,0.36-0.84,0.65-1.35,0.85c-0.52,0.2-1.09,0.3-1.69,0.3c-0.61,0-1.18-0.09-1.7-0.28c-0.52-0.19-0.98-0.47-1.37-0.83 c-0.39-0.36-0.7-0.81-0.92-1.32c-0.22-0.51-0.33-1.1-0.33-1.73l-0.06-10.68c-3.38,1.63-5.71,5.1-5.69,9.11 c0.03,5.54,4.55,10.01,10.1,9.98c5.54-0.03,10.01-4.55,9.98-10.1C65.21,29.57,60.69,25.1,55.15,25.13z"/>
  <path d="M 6.225 -7.675 L -0.425 -17.7 L 3.425 -17.7 L 7.875 -10.25 L 12.375 -17.7 L 16.025 -17.7 L 9.375 -7.675 L 9.375 0 L 6.225 0 Z M 17.024 -8.9 Q 17.024 -11.025 17.737 -12.737 Q 18.449 -14.45 19.712 -15.65 Q 20.974 -16.85 22.712 -17.5 Q 24.449 -18.15 26.499 -18.15 Q 28.574 -18.15 30.324 -17.5 Q 32.074 -16.85 33.349 -15.65 Q 34.624 -14.45 35.337 -12.737 Q 36.049 -11.025 36.049 -8.9 Q 36.049 -6.825 35.337 -5.113 Q 34.624 -3.4 33.349 -2.162 Q 32.074 -0.925 30.324 -0.237 Q 28.574 0.45 26.499 0.45 Q 24.449 0.45 22.712 -0.237 Q 20.974 -0.925 19.712 -2.162 Q 18.449 -3.4 17.737 -5.113 Q 17.024 -6.825 17.024 -8.9 Z M 20.449 -8.9 Q 20.449 -7.475 20.887 -6.288 Q 21.324 -5.1 22.137 -4.225 Q 22.949 -3.35 24.062 -2.862 Q 25.174 -2.375 26.524 -2.375 Q 27.874 -2.375 28.999 -2.862 Q 30.124 -3.35 30.937 -4.225 Q 31.749 -5.1 32.187 -6.288 Q 32.624 -7.475 32.624 -8.9 Q 32.624 -10.275 32.187 -11.45 Q 31.749 -12.625 30.949 -13.5 Q 30.149 -14.375 29.024 -14.875 Q 27.899 -15.375 26.524 -15.375 Q 25.149 -15.375 24.037 -14.875 Q 22.924 -14.375 22.124 -13.5 Q 21.324 -12.625 20.887 -11.45 Q 20.449 -10.275 20.449 -8.9 Z M 53.249 -6.5 Q 53.249 -4.9 52.699 -3.612 Q 52.149 -2.325 51.199 -1.425 Q 50.249 -0.525 48.949 -0.037 Q 47.649 0.45 46.124 0.45 Q 44.599 0.45 43.299 -0.037 Q 41.999 -0.525 41.036 -1.425 Q 40.074 -2.325 39.536 -3.612 Q 38.999 -4.9 38.999 -6.5 L 38.999 -17.7 L 42.149 -17.7 L 42.149 -6.625 Q 42.149 -5.85 42.349 -5.087 Q 42.549 -4.325 43.011 -3.725 Q 43.474 -3.125 44.236 -2.75 Q 44.999 -2.375 46.124 -2.375 Q 47.249 -2.375 48.011 -2.75 Q 48.774 -3.125 49.236 -3.725 Q 49.699 -4.325 49.899 -5.087 Q 50.099 -5.85 50.099 -6.625 L 50.099 -17.7 L 53.249 -17.7 Z M 57.599 -17.7 L 63.749 -17.7 Q 64.999 -17.7 66.174 -17.437 Q 67.349 -17.175 68.261 -16.575 Q 69.174 -15.975 69.724 -15 Q 70.274 -14.025 70.274 -12.625 Q 70.274 -10.7 69.186 -9.487 Q 68.099 -8.275 66.224 -7.85 L 70.949 0 L 67.149 0 L 63.049 -7.5 L 60.749 -7.5 L 60.749 0 L 57.599 0 Z M 63.324 -10.075 Q 63.999 -10.075 64.674 -10.175 Q 65.349 -10.275 65.886 -10.55 Q 66.424 -10.825 66.774 -11.337 Q 67.124 -11.85 67.124 -12.65 Q 67.124 -13.375 66.799 -13.837 Q 66.474 -14.3 65.974 -14.575 Q 65.474 -14.85 64.836 -14.95 Q 64.199 -15.05 63.599 -15.05 L 60.749 -15.05 L 60.749 -10.075 Z" transform="matrix(1, 0, 0, 1, 70.6418, 20.824699)" style="white-space: pre;"/>
  <path d="M 2.35 5.9 L 7.625 5.9 Q 8.625 5.9 9.65 6.113 Q 10.675 6.325 11.488 6.838 Q 12.3 7.35 12.813 8.225 Q 13.325 9.1 13.325 10.425 Q 13.325 11.825 12.475 12.863 Q 11.625 13.9 10.2 14.225 L 10.2 14.275 Q 11.925 14.475 13.063 15.613 Q 14.2 16.75 14.2 18.7 Q 14.2 19.8 13.738 20.713 Q 13.275 21.625 12.425 22.263 Q 11.575 22.9 10.35 23.25 Q 9.125 23.6 7.6 23.6 L 2.35 23.6 Z M 4.15 13.65 L 7.775 13.65 Q 8.425 13.65 9.088 13.5 Q 9.75 13.35 10.3 12.988 Q 10.85 12.625 11.188 12.025 Q 11.525 11.425 11.525 10.55 Q 11.525 9.7 11.188 9.113 Q 10.85 8.525 10.275 8.15 Q 9.7 7.775 8.925 7.613 Q 8.15 7.45 7.275 7.45 L 4.15 7.45 Z M 4.15 22.05 L 7.5 22.05 Q 8.475 22.05 9.363 21.863 Q 10.25 21.675 10.913 21.263 Q 11.575 20.85 11.975 20.188 Q 12.375 19.525 12.375 18.6 Q 12.375 16.85 11.188 15.988 Q 10 15.125 7.825 15.125 L 4.15 15.125 Z M 24.775 24.05 Q 22.775 24.05 21.5 23.363 Q 20.225 22.675 19.475 21.625 Q 18.725 20.575 18.437 19.338 Q 18.15 18.1 18.15 17 L 18.15 5.9 L 19.95 5.9 L 19.95 16.8 Q 19.95 17.875 20.2 18.888 Q 20.45 19.9 21.012 20.688 Q 21.575 21.475 22.5 21.963 Q 23.425 22.45 24.775 22.45 Q 26.125 22.45 27.05 21.963 Q 27.975 21.475 28.537 20.688 Q 29.1 19.9 29.35 18.888 Q 29.6 17.875 29.6 16.8 L 29.6 5.9 L 31.4 5.9 L 31.4 17 Q 31.4 18.1 31.112 19.338 Q 30.825 20.575 30.075 21.625 Q 29.325 22.675 28.037 23.363 Q 26.75 24.05 24.775 24.05 Z M 44.574 8.75 Q 43.999 7.95 43.099 7.463 Q 42.199 6.975 40.924 6.975 Q 40.274 6.975 39.599 7.175 Q 38.924 7.375 38.374 7.788 Q 37.824 8.2 37.487 8.825 Q 37.149 9.45 37.149 10.3 Q 37.149 11.15 37.474 11.7 Q 37.799 12.25 38.337 12.638 Q 38.874 13.025 39.562 13.275 Q 40.249 13.525 40.999 13.775 Q 41.924 14.075 42.862 14.425 Q 43.799 14.775 44.549 15.338 Q 45.299 15.9 45.774 16.763 Q 46.249 17.625 46.249 18.95 Q 46.249 20.275 45.737 21.238 Q 45.224 22.2 44.412 22.825 Q 43.599 23.45 42.562 23.75 Q 41.524 24.05 40.474 24.05 Q 39.674 24.05 38.874 23.888 Q 38.074 23.725 37.349 23.4 Q 36.624 23.075 35.999 22.575 Q 35.374 22.075 34.899 21.425 L 36.449 20.275 Q 37.024 21.225 38.062 21.863 Q 39.099 22.5 40.499 22.5 Q 41.174 22.5 41.874 22.288 Q 42.574 22.075 43.137 21.638 Q 43.699 21.2 44.062 20.563 Q 44.424 19.925 44.424 19.075 Q 44.424 18.15 44.062 17.538 Q 43.699 16.925 43.099 16.513 Q 42.499 16.1 41.724 15.825 Q 40.949 15.55 40.099 15.275 Q 39.224 15 38.374 14.65 Q 37.524 14.3 36.849 13.738 Q 36.174 13.175 35.762 12.35 Q 35.349 11.525 35.349 10.325 Q 35.349 9.05 35.862 8.125 Q 36.374 7.2 37.199 6.6 Q 38.024 6 39.024 5.725 Q 40.024 5.45 40.999 5.45 Q 42.799 5.45 44.074 6.088 Q 45.349 6.725 45.999 7.6 Z M 51.899 23.6 L 50.099 23.6 L 50.099 5.9 L 51.899 5.9 Z M 69.149 20.975 L 69.199 20.975 L 69.199 5.9 L 70.999 5.9 L 70.999 23.6 L 68.749 23.6 L 58.449 8.375 L 58.399 8.375 L 58.399 23.6 L 56.599 23.6 L 56.599 5.9 L 58.849 5.9 Z M 77.499 22 L 86.974 22 L 86.974 23.6 L 75.699 23.6 L 75.699 5.9 L 86.674 5.9 L 86.674 7.5 L 77.499 7.5 L 77.499 13.6 L 86.074 13.6 L 86.074 15.175 L 77.499 15.175 Z M 99.073 8.75 Q 98.498 7.95 97.598 7.463 Q 96.698 6.975 95.423 6.975 Q 94.773 6.975 94.098 7.175 Q 93.423 7.375 92.873 7.788 Q 92.323 8.2 91.986 8.825 Q 91.648 9.45 91.648 10.3 Q 91.648 11.15 91.973 11.7 Q 92.298 12.25 92.836 12.638 Q 93.373 13.025 94.061 13.275 Q 94.748 13.525 95.498 13.775 Q 96.423 14.075 97.361 14.425 Q 98.298 14.775 99.048 15.338 Q 99.798 15.9 100.273 16.763 Q 100.748 17.625 100.748 18.95 Q 100.748 20.275 100.236 21.238 Q 99.723 22.2 98.911 22.825 Q 98.098 23.45 97.061 23.75 Q 96.023 24.05 94.973 24.05 Q 94.173 24.05 93.373 23.888 Q 92.573 23.725 91.848 23.4 Q 91.123 23.075 90.498 22.575 Q 89.873 22.075 89.398 21.425 L 90.948 20.275 Q 91.523 21.225 92.561 21.863 Q 93.598 22.5 94.998 22.5 Q 95.673 22.5 96.373 22.288 Q 97.073 22.075 97.636 21.638 Q 98.198 21.2 98.561 20.563 Q 98.923 19.925 98.923 19.075 Q 98.923 18.15 98.561 17.538 Q 98.198 16.925 97.598 16.513 Q 96.998 16.1 96.223 15.825 Q 95.448 15.55 94.598 15.275 Q 93.723 15 92.873 14.65 Q 92.023 14.3 91.348 13.738 Q 90.673 13.175 90.261 12.35 Q 89.848 11.525 89.848 10.325 Q 89.848 9.05 90.361 8.125 Q 90.873 7.2 91.698 6.6 Q 92.523 6 93.523 5.725 Q 94.523 5.45 95.498 5.45 Q 97.298 5.45 98.573 6.088 Q 99.848 6.725 100.498 7.6 Z M 113.173 8.75 Q 112.598 7.95 111.698 7.463 Q 110.798 6.975 109.523 6.975 Q 108.873 6.975 108.198 7.175 Q 107.523 7.375 106.973 7.788 Q 106.423 8.2 106.086 8.825 Q 105.748 9.45 105.748 10.3 Q 105.748 11.15 106.073 11.7 Q 106.398 12.25 106.936 12.638 Q 107.473 13.025 108.161 13.275 Q 108.848 13.525 109.598 13.775 Q 110.523 14.075 111.461 14.425 Q 112.398 14.775 113.148 15.338 Q 113.898 15.9 114.373 16.763 Q 114.848 17.625 114.848 18.95 Q 114.848 20.275 114.336 21.238 Q 113.823 22.2 113.011 22.825 Q 112.198 23.45 111.161 23.75 Q 110.123 24.05 109.073 24.05 Q 108.273 24.05 107.473 23.888 Q 106.673 23.725 105.948 23.4 Q 105.223 23.075 104.598 22.575 Q 103.973 22.075 103.498 21.425 L 105.048 20.275 Q 105.623 21.225 106.661 21.863 Q 107.698 22.5 109.098 22.5 Q 109.773 22.5 110.473 22.288 Q 111.173 22.075 111.736 21.638 Q 112.298 21.2 112.661 20.563 Q 113.023 19.925 113.023 19.075 Q 113.023 18.15 112.661 17.538 Q 112.298 16.925 111.698 16.513 Q 111.098 16.1 110.323 15.825 Q 109.548 15.55 108.698 15.275 Q 107.823 15 106.973 14.65 Q 106.123 14.3 105.448 13.738 Q 104.773 13.175 104.361 12.35 Q 103.948 11.525 103.948 10.325 Q 103.948 9.05 104.461 8.125 Q 104.973 7.2 105.798 6.6 Q 106.623 6 107.623 5.725 Q 108.623 5.45 109.598 5.45 Q 111.398 5.45 112.673 6.088 Q 113.948 6.725 114.598 7.6 Z" transform="matrix(1, 0, 0, 1, 70.6418, 20.824699)" style="white-space: pre;"/>
</svg>